<?xml version="1.0" encoding="UTF-8"?>
<svg width="25px" height="25px" viewBox="0 0 25 25" version="1.1" xmlns="http://www.w3.org/2000/svg" xmlns:xlink="http://www.w3.org/1999/xlink">
    <title>LinkedIn_Logo</title>
    <g id="Page-1" stroke="none" stroke-width="1" fill="none" fill-rule="evenodd">
        <g id="LinkedIn_Logo" transform="translate(0.284416, -0.000086)" fill="#000000" fill-rule="nonzero">
            <path d="M20.6164502,20.6164285 L17.0312771,20.6164285 L17.0312771,15.0019263 C17.0312771,13.6630735 17.0073593,11.9395886 15.1666667,11.9395886 C13.2993506,11.9395886 13.0136364,13.3982466 13.0136364,14.9044155 L13.0136364,20.6159956 L9.42857143,20.6159956 L9.42857143,9.07032456 L12.8702381,9.07032456 L12.8702381,10.6481384 L12.9185065,10.6481384 C13.6192641,9.44997824 14.9270563,8.73168819 16.3142857,8.78320334 C19.9479437,8.78320334 20.6179654,11.1732466 20.6179654,14.2826622 L20.6164502,20.6164285 Z M5.38333333,7.4920778 C5.38311688,7.4920778 5.38300866,7.4920778 5.38290043,7.4920778 C4.24155844,7.4920778 3.30238095,6.55300854 3.30238095,5.41166655 C3.30238095,4.27032456 4.24155844,3.33114707 5.38290043,3.33114707 C6.5241342,3.33114707 7.46320346,4.27010811 7.46341991,5.41123365 C7.46341991,5.41134187 7.46341991,5.4114501 7.46341991,5.41166655 C7.46341991,6.55279209 6.52445887,7.49196958 5.38333333,7.4920778 M7.1758658,20.6164285 L3.58701299,20.6164285 L3.58701299,9.07032456 L7.1758658,9.07032456 L7.1758658,20.6164285 Z M22.4036797,0.00181806307 L1.78538961,0.00181806307 C0.817532468,-0.00911267286 0.0117965368,0.777900314 0,1.74575746 L0,22.4496536 C0.0113636364,23.4180518 0.816991342,24.2059306 1.78538961,24.1956815 L22.4036797,24.1956815 C23.3744589,24.2077704 24.1829004,23.4199999 24.1958874,22.4496536 L24.1958874,1.74435053 C24.1829004,0.774437111 23.3733766,-0.0124676512 22.4036797,0.000149639761" id="Shape"></path>
        </g>
    </g>
</svg>